<svg id="Layer_1" data-name="Layer 1" xmlns="http://www.w3.org/2000/svg" viewBox="0 0 31.9 47.82"><title>S1</title><path d="M742.06,371c8.06,0,14.21,4.24,15.92,12.1l-8.68,3.48c-.95-4.3-3.55-6-7.31-6s-5.8,1.84-5.8,4.23c0,3.42,3.69,4.37,8.74,6,6.49,2.12,12.57,5.27,12.57,14.15s-6.69,13.86-15.44,13.86c-7.38,0-14.14-3.55-16-12.09l8.54-3.69c1,4.24,3.41,6.22,7.51,6.22,3.69,0,5.81-1.64,5.81-4.3,0-3.56-3.76-4.51-8.47-5.95-6-1.91-12.85-5.12-12.85-14.28C726.62,376.06,733.25,371,742.06,371Z" transform="translate(-726.08 -371)"/></svg>